HIERARCHY
ROOT Haolin_28_06:Solving:Hips
{
	OFFSET 0.000000 0.000000 0.000000
	CHANNELS 6 Xposition Yposition Zposition Xrotation Yrotation Zrotation
	JOINT Haolin_28_06:Solving:Spine
	{
		OFFSET 0.000000 -12.181966 2.015561
		CHANNELS 6 Xposition Yposition Zposition Xrotation Yrotation Zrotation
		JOINT Haolin_28_06:Solving:Spine1
		{
			OFFSET 0.000000 -8.890296 1.567602
			CHANNELS 6 Xposition Yposition Zposition Xrotation Yrotation Zrotation
			JOINT Haolin_28_06:Solving:Spine2
			{
				OFFSET 0.000000 -8.993092 0.786796
				CHANNELS 6 Xposition Yposition Zposition Xrotation Yrotation Zrotation
				JOINT Haolin_28_06:Solving:Spine3
				{
					OFFSET 0.000000 -9.027443 0.000000
					CHANNELS 6 Xposition Yposition Zposition Xrotation Yrotation Zrotation
					JOINT Haolin_28_06:Solving:Neck
					{
						OFFSET 0.000000 -11.606712 -1.160669
						CHANNELS 6 Xposition Yposition Zposition Xrotation Yrotation Zrotation
						JOINT Haolin_28_06:Solving:Neck1
						{
							OFFSET 0.000000 -7.471592 -0.653680
							CHANNELS 6 Xposition Yposition Zposition Xrotation Yrotation Zrotation
							JOINT Haolin_28_06:Solving:Head
							{
								OFFSET 0.000000 -7.386181 -1.302382
								CHANNELS 6 Xposition Yposition Zposition Xrotation Yrotation Zrotation
								JOINT Haolin_28_06:Solving:HeadEnd
								{
									OFFSET 0.000000 -9.728081 0.000002
									CHANNELS 6 Xposition Yposition Zposition Xrotation Yrotation Zrotation
									End Site
									{
										OFFSET 0.000000 -9.728081 0.000002
									}
								}
							}
						}
					}
					JOINT Haolin_28_06:Solving:RightShoulder
					{
						OFFSET 0.000000 -8.290508 -5.270916
						CHANNELS 6 Xposition Yposition Zposition Xrotation Yrotation Zrotation
						JOINT Haolin_28_06:Solving:RightArm
						{
							OFFSET -19.261074 -0.000008 0.000000
							CHANNELS 6 Xposition Yposition Zposition Xrotation Yrotation Zrotation
							JOINT Haolin_28_06:Solving:RightForeArm
							{
								OFFSET -30.691700 -0.000011 0.000000
								CHANNELS 6 Xposition Yposition Zposition Xrotation Yrotation Zrotation
								JOINT Haolin_28_06:Solving:RightHand
								{
									OFFSET -20.216934 -0.000008 0.000000
									CHANNELS 6 Xposition Yposition Zposition Xrotation Yrotation Zrotation
									JOINT Haolin_28_06:Solving:RightHandThumb1
									{
										OFFSET -4.948814 2.881329 -3.679893
										CHANNELS 6 Xposition Yposition Zposition Xrotation Yrotation Zrotation
										End Site
										{
											OFFSET -7.039886 -0.000004 -7.104978
										}
									}
									JOINT Haolin_28_06:Solving:RightHandMiddle1
									{
										OFFSET -13.196846 -0.000004 0.084595
										CHANNELS 6 Xposition Yposition Zposition Xrotation Yrotation Zrotation
										End Site
										{
											OFFSET -10.002037 -0.000004 0.000000
										}
									}
								}
							}
						}
					}
					JOINT Haolin_28_06:Solving:LeftShoulder
					{
						OFFSET 0.000000 -8.290508 -5.270916
						CHANNELS 6 Xposition Yposition Zposition Xrotation Yrotation Zrotation
						JOINT Haolin_28_06:Solving:LeftArm
						{
							OFFSET 19.261074 -0.000008 0.000000
							CHANNELS 6 Xposition Yposition Zposition Xrotation Yrotation Zrotation
							JOINT Haolin_28_06:Solving:LeftForeArm
							{
								OFFSET 30.691700 -0.000011 0.000000
								CHANNELS 6 Xposition Yposition Zposition Xrotation Yrotation Zrotation
								JOINT Haolin_28_06:Solving:LeftHand
								{
									OFFSET 20.216934 -0.000008 0.000000
									CHANNELS 6 Xposition Yposition Zposition Xrotation Yrotation Zrotation
									JOINT Haolin_28_06:Solving:LeftHandThumb1
									{
										OFFSET 4.948814 2.881329 -3.679893
										CHANNELS 6 Xposition Yposition Zposition Xrotation Yrotation Zrotation
										End Site
										{
											OFFSET 7.039886 -0.000004 -7.104978
										}
									}
									JOINT Haolin_28_06:Solving:LeftHandMiddle1
									{
										OFFSET 13.196846 -0.000004 0.084595
										CHANNELS 6 Xposition Yposition Zposition Xrotation Yrotation Zrotation
										End Site
										{
											OFFSET 10.002037 -0.000004 0.000000
										}
									}
								}
							}
						}
					}
				}
			}
		}
	}
	JOINT Haolin_28_06:Solving:RightUpLeg
	{
		OFFSET -10.083070 0.000000 0.000000
		CHANNELS 6 Xposition Yposition Zposition Xrotation Yrotation Zrotation
		JOINT Haolin_28_06:Solving:RightLeg
		{
			OFFSET 0.000000 47.042522 -0.000008
			CHANNELS 6 Xposition Yposition Zposition Xrotation Yrotation Zrotation
			JOINT Haolin_28_06:Solving:RightFoot
			{
				OFFSET 0.000000 38.766415 -0.000006
				CHANNELS 6 Xposition Yposition Zposition Xrotation Yrotation Zrotation
				JOINT Haolin_28_06:Solving:RightForeFoot
				{
					OFFSET 0.000000 3.531212 -0.000000
					CHANNELS 6 Xposition Yposition Zposition Xrotation Yrotation Zrotation
					JOINT Haolin_28_06:Solving:RightToeBase
					{
						OFFSET 0.000000 0.000000 -13.829352
						CHANNELS 6 Xposition Yposition Zposition Xrotation Yrotation Zrotation
						JOINT Haolin_28_06:Solving:RightToeBaseEnd
						{
							OFFSET 0.000000 0.000000 -4.034167
							CHANNELS 6 Xposition Yposition Zposition Xrotation Yrotation Zrotation
							End Site
							{
								OFFSET 0.000000 -4.034164 0.000004
							}
						}
					}
				}
			}
		}
	}
	JOINT Haolin_28_06:Solving:LeftUpLeg
	{
		OFFSET 10.083070 0.000000 0.000000
		CHANNELS 6 Xposition Yposition Zposition Xrotation Yrotation Zrotation
		JOINT Haolin_28_06:Solving:LeftLeg
		{
			OFFSET 0.000000 47.042522 -0.000008
			CHANNELS 6 Xposition Yposition Zposition Xrotation Yrotation Zrotation
			JOINT Haolin_28_06:Solving:LeftFoot
			{
				OFFSET 0.000000 38.766415 -0.000006
				CHANNELS 6 Xposition Yposition Zposition Xrotation Yrotation Zrotation
				JOINT Haolin_28_06:Solving:LeftForeFoot
				{
					OFFSET 0.000000 3.531212 -0.000000
					CHANNELS 6 Xposition Yposition Zposition Xrotation Yrotation Zrotation
					JOINT Haolin_28_06:Solving:LeftToeBase
					{
						OFFSET 0.000000 0.000000 -13.829352
						CHANNELS 6 Xposition Yposition Zposition Xrotation Yrotation Zrotation
						JOINT Haolin_28_06:Solving:LeftToeBaseEnd
						{
							OFFSET 0.000000 0.000000 -4.855067
							CHANNELS 6 Xposition Yposition Zposition Xrotation Yrotation Zrotation
							End Site
							{
								OFFSET 0.000000 -4.855064 0.000004
							}
						}
					}
				}
			}
		}
	}
}
MOTION
Frames: 4
Frame Time: 0.041667
-1.516912 -172.387894 -80.552895 125.770052 -11.994721 -3.473092 -0.000001 -12.181952 2.015584 23.935080 -0.306266 -1.797053 -0.000005 -8.890312 1.567570 12.153382 -0.060312 -1.259344 0.000000 -8.993093 0.786805 15.062640 -1.717865 1.557973 0.000000 -9.027459 -0.000023 -2.534339 -1.231182 4.180479 0.000007 -11.606760 -1.160675 -12.309528 -8.085254 5.877295 -0.000003 -7.471608 -0.653704 -18.139219 -18.959321 -1.980931 -0.000018 -7.386189 -1.302408 -6.585242 -1.674477 1.545230 -0.000010 -9.728081 0.000003 0.000005 -0.000001 0.000001 0.000009 -8.290527 -5.270928 -0.000006 10.217428 22.464567 -19.261080 0.000001 0.000015 -67.655537 -41.469384 -77.187374 -30.691698 -0.000020 0.000003 -41.880749 -10.592549 -9.359553 -20.216908 -0.000029 0.000025 5.239300 -20.076813 14.955946 -4.948799 2.881317 -3.679866 0.000001 -0.000000 0.000000 -13.196838 -0.000025 0.084597 0.000002 0.000009 -0.000000 0.000010 -8.290524 -5.270928 -0.000006 -12.590996 -19.589401 19.261066 -0.000039 -0.000000 -110.680060 56.728512 108.195688 30.691700 -0.000037 -0.000006 -45.164117 4.116464 4.129379 20.216932 -0.000022 -0.000006 1.903464 9.159652 -11.792523 4.948805 2.881321 -3.679875 -0.000004 0.000003 -0.000002 13.196852 -0.000011 0.084615 -0.000004 0.000001 0.000007 -10.083071 0.000035 0.000026 -82.206934 10.321253 20.273820 0.000005 47.042561 0.000012 64.538806 -0.000002 -0.000004 -0.000002 38.766407 -0.000038 -14.854989 5.851323 6.727073 -0.000008 3.531212 0.000004 0.000001 -0.000003 0.000001 0.000016 0.000019 -13.829384 -5.028978 -0.000001 0.000000 0.000003 -0.000008 -4.034191 -0.000000 -0.000002 0.000000 10.083063 0.000002 0.000018 -78.050170 -28.282681 -7.215155 0.000018 47.042473 0.000022 62.026300 -0.000001 -0.000004 -0.000006 38.766411 0.000001 -4.477329 0.500919 5.973892 0.000011 3.531219 0.000017 -0.000002 0.000000 0.000001 -0.000001 0.000002 -13.829358 -0.219707 -0.000001 -0.000002 -0.000009 -0.000007 -4.855067 0.000002 0.000004 0.000000 
-1.413342 -172.460724 -80.647621 125.874786 -11.980166 -3.609430 0.000003 -12.181922 2.015564 23.918848 -0.326438 -1.730358 0.000005 -8.890299 1.567603 12.088193 -0.076414 -1.233950 -0.000008 -8.993050 0.786763 14.979464 -1.928939 1.656125 -0.000004 -9.027436 -0.000027 -2.462655 -1.258603 4.174780 -0.000009 -11.606742 -1.160693 -12.350901 -8.114365 5.822763 -0.000011 -7.471601 -0.653679 -18.218898 -18.821952 -1.977743 -0.000005 -7.386196 -1.302379 -6.561338 -1.656350 1.519300 -0.000000 -9.728081 0.000010 0.000006 0.000004 -0.000002 -0.000005 -8.290504 -5.270955 -0.000007 10.037321 22.686661 -19.261068 0.000002 -0.000010 -67.228568 -41.409005 -76.973479 -30.691696 -0.000001 0.000000 -41.989544 -10.458305 -9.279066 -20.216915 -0.000035 0.000010 5.163433 -20.046103 14.768483 -4.948823 2.881311 -3.679896 -0.000000 -0.000012 0.000007 -13.196861 -0.000024 0.084578 0.000000 0.000002 -0.000000 -0.000008 -8.290504 -5.270962 -0.000006 -12.614900 -19.723191 19.261072 -0.000023 -0.000012 -111.080145 57.101020 108.539854 30.691704 -0.000030 -0.000006 -44.891674 4.142446 4.116113 20.216932 -0.000017 -0.000023 1.853735 9.224059 -11.415060 4.948801 2.881324 -3.679881 -0.000001 -0.000012 0.000001 13.196846 -0.000015 0.084590 -0.000005 -0.000008 -0.000000 -10.083066 -0.000001 -0.000009 -82.436907 10.422971 20.565259 -0.000003 47.042522 0.000035 64.410890 -0.000001 -0.000003 0.000011 38.766418 -0.000021 -14.598933 5.520381 6.695614 0.000003 3.531212 -0.000020 -0.000001 -0.000002 0.000001 0.000013 0.000007 -13.829365 -4.993680 -0.000003 -0.000000 0.000003 -0.000015 -4.034170 -0.000000 -0.000000 0.000000 10.083076 0.000034 0.000012 -78.622956 -28.793226 -7.794171 -0.000016 47.042496 0.000031 62.427103 -0.000005 0.000001 -0.000014 38.766422 -0.000017 -3.403442 1.311100 6.995919 -0.000007 3.531205 -0.000011 0.000003 0.000004 0.000004 -0.000002 0.000004 -13.829367 0.084288 -0.000002 -0.000003 0.000003 -0.000008 -4.855063 -0.000001 -0.000000 0.000000 
-1.320985 -172.533585 -80.746155 125.977430 -11.983529 -3.729945 -0.000003 -12.181959 2.015563 23.923506 -0.336853 -1.654852 -0.000000 -8.890300 1.567584 12.012487 -0.096010 -1.196445 0.000005 -8.993110 0.786778 14.873000 -2.125117 1.739302 0.000001 -9.027430 0.000007 -2.393579 -1.292367 4.156763 0.000000 -11.606727 -1.160662 -12.368011 -8.130008 5.822935 0.000002 -7.471584 -0.653673 -18.326916 -18.716873 -2.024850 -0.000009 -7.386169 -1.302396 -6.567797 -1.643567 1.492510 0.000000 -9.728088 0.000011 -0.000002 -0.000003 -0.000002 -0.000007 -8.290524 -5.270919 -0.000004 9.833122 22.943650 -19.261084 -0.000017 0.000000 -66.773097 -41.322419 -76.786052 -30.691702 -0.000027 0.000002 -42.103882 -10.329132 -9.203874 -20.216944 0.000009 -0.000004 5.098381 -20.081009 14.566142 -4.948805 2.881326 -3.679874 -0.000003 0.000009 0.000004 -13.196845 0.000002 0.084609 0.000000 0.000004 0.000001 -0.000007 -8.290520 -5.270919 -0.000007 -12.709081 -19.798782 19.261076 -0.000044 -0.000025 -111.634599 57.531510 109.002443 30.691711 -0.000026 0.000001 -44.672989 4.195033 4.136497 20.216915 -0.000015 0.000002 1.806674 9.145739 -11.224500 4.948814 2.881329 -3.679859 -0.000001 0.000000 -0.000000 13.196860 -0.000006 0.084617 0.000001 -0.000002 -0.000001 -10.083069 0.000010 0.000003 -82.624361 10.531277 20.823947 0.000009 47.042542 0.000009 64.208143 0.000000 -0.000003 -0.000002 38.766403 0.000019 -14.338737 5.276104 6.716294 0.000009 3.531204 -0.000031 -0.000002 0.000002 0.000000 -0.000002 0.000006 -13.829374 -5.109063 -0.000005 -0.000001 0.000003 -0.000008 -4.034172 -0.000000 -0.000001 0.000000 10.083066 -0.000002 -0.000015 -79.216746 -29.221554 -8.377257 0.000001 47.042519 -0.000011 62.828602 -0.000002 -0.000002 -0.000012 38.766422 0.000003 -2.265887 2.123621 8.042890 -0.000004 3.531205 0.000005 0.000001 0.000002 -0.000001 -0.000012 0.000004 -13.829341 0.071929 0.000002 -0.000001 -0.000012 0.000000 -4.855050 0.000003 -0.000005 0.000001 
-1.267656 -172.592880 -80.861877 126.043150 -11.966565 -3.802375 -0.000005 -12.181952 2.015648 23.899865 -0.339184 -1.555824 -0.000004 -8.890307 1.567602 11.994133 -0.112865 -1.132613 0.000006 -8.993074 0.786780 14.847151 -2.376619 1.775828 -0.000007 -9.027445 0.000007 -2.380408 -1.343507 4.135780 -0.000001 -11.606718 -1.160673 -12.430572 -8.163025 5.810345 -0.000018 -7.471596 -0.653694 -18.406655 -18.600859 -2.050519 0.000009 -7.386207 -1.302373 -6.516132 -1.623055 1.453742 0.000004 -9.728081 0.000011 0.000002 -0.000001 0.000000 -0.000003 -8.290527 -5.270924 -0.000008 9.640174 23.200874 -19.261074 -0.000002 -0.000006 -66.324286 -41.213836 -76.596637 -30.691719 -0.000014 -0.000001 -42.193272 -10.238601 -9.153597 -20.216930 -0.000031 0.000003 5.011609 -20.048045 14.348945 -4.948835 2.881335 -3.679882 0.000001 -0.000002 0.000003 -13.196862 0.000002 0.084604 -0.000003 0.000003 -0.000001 -0.000007 -8.290524 -5.270923 -0.000008 -12.789220 -19.890792 19.261063 -0.000035 -0.000011 -112.101463 57.847003 109.357066 30.691721 -0.000002 0.000004 -44.170700 4.323962 4.189093 20.216921 -0.000014 -0.000009 1.768170 8.871149 -11.319773 4.948832 2.881336 -3.679882 -0.000001 -0.000003 0.000003 13.196856 0.000001 0.084595 -0.000000 -0.000002 0.000003 -10.083079 0.000015 0.000052 -82.677466 10.575360 20.914217 0.000006 47.042542 0.000024 63.947400 -0.000003 -0.000003 -0.000002 38.766399 -0.000044 -14.060605 5.234937 6.745298 0.000005 3.531219 -0.000017 -0.000001 -0.000001 0.000001 -0.000009 0.000017 -13.829339 -5.229434 -0.000001 0.000001 0.000006 0.000000 -4.034172 -0.000000 0.000000 0.000000 10.083066 0.000017 0.000065 -79.764233 -29.526723 -9.007420 0.000009 47.042450 0.000001 63.172105 -0.000010 0.000001 0.000011 38.766422 -0.000000 -1.275914 2.959986 9.377271 -0.000008 3.531219 -0.000006 0.000001 -0.000000 -0.000001 -0.000014 0.000011 -13.829357 0.351357 -0.000005 -0.000004 -0.000007 0.000008 -4.855060 0.000001 -0.000001 -0.000001 
